<?xml version="1.0" encoding="UTF-8" standalone="no"?>
<!-- Uploaded to: SVG Repo, www.svgrepo.com, Generator: SVG Repo Mixer Tools -->

<svg
   height="800px"
   width="800px"
   version="1.1"
   id="Layer_1"
   viewBox="0 0 512 512"
   xml:space="preserve"
   sodipodi:docname="webml-speech-reco.svg"
   inkscape:version="1.1 (c4e8f9e, 2021-05-24)"
   xmlns:inkscape="http://www.inkscape.org/namespaces/inkscape"
   xmlns:sodipodi="http://sodipodi.sourceforge.net/DTD/sodipodi-0.dtd"
   xmlns="http://www.w3.org/2000/svg"
   xmlns:svg="http://www.w3.org/2000/svg"><defs
   id="defs845" /><sodipodi:namedview
   id="namedview843"
   pagecolor="#ffffff"
   bordercolor="#666666"
   borderopacity="1.0"
   inkscape:pageshadow="2"
   inkscape:pageopacity="0.0"
   inkscape:pagecheckerboard="0"
   showgrid="false"
   inkscape:zoom="0.42339959"
   inkscape:cx="327.11416"
   inkscape:cy="464.10059"
   inkscape:window-width="1312"
   inkscape:window-height="847"
   inkscape:window-x="105"
   inkscape:window-y="25"
   inkscape:window-maximized="0"
   inkscape:current-layer="Layer_1" />





<circle
   style="fill:#2b334e;fill-opacity:1;stroke:none;stroke-width:7.20055"
   id="path4953"
   cx="256"
   cy="256"
   r="252.8" /><path
   style="display:inline;fill:#ffffff;stroke-width:1.32723"
   d="m 243.18675,379.60567 c -5.76448,0 -10.68856,-3.90489 -11.59085,-9.22368 l -24.60804,-145.12382 -22.6838,112.64626 c -1.01232,5.02807 -5.836,8.84587 -11.34052,8.91375 -5.50039,0.0679 -10.45749,-3.55269 -11.65137,-8.55772 l -17.93852,-75.16367 -19.8999,24.70749 c -2.21859,2.75225 -5.69708,4.37107 -9.39014,4.37107 H 55.397613 c -6.482459,0 -11.736648,-4.8936 -11.736648,-10.92832 0,-6.03599 5.255565,-10.92831 11.736648,-10.92831 H 108.2146 l 31.69019,-39.34345 c 5.90064,-7.32695 18.71977,-4.73479 20.84757,4.18536 l 11.04206,46.26698 24.6493,-122.41168 c 1.04258,-5.17535 5.89652,-8.91503 11.53446,-8.91503 0.0564,0 0.11278,0 0.17055,0.001 5.71221,0.0768 10.53451,3.97021 11.42442,9.22241 l 22.26704,131.30748 24.91476,-185.60326 c 0.72486,-5.395639 5.79199,-9.566917 11.63212,-9.57332 5.82637,-0.0064 10.90038,4.134136 11.65412,9.51441 l 26.38786,188.37984 20.92047,-90.8985 c 1.1595,-5.04088 6.12485,-8.71652 11.65963,-8.63839 5.53478,0.0781 10.37358,3.90104 11.3639,8.97266 l 17.17515,87.95798 7.72723,-14.39007 c 1.98752,-3.70254 6.05195,-6.04112 10.49738,-6.04112 h 58.686 c 6.48245,0 11.73664,4.8936 11.73664,10.92831 0,6.03471 -5.25556,10.92831 -11.73664,10.92831 h -51.43192 l -20.23,37.67469 c -2.30249,4.28654 -7.49479,6.71349 -12.56192,5.87206 -4.77278,-0.79276 -8.61714,-4.36338 -9.48367,-8.80361 l -12.87001,-65.91181 -22.79108,99.03229 c -1.20351,5.22402 -6.43295,8.92784 -12.15616,8.61919 -5.56091,-0.30097 -10.23742,-4.35058 -10.95815,-9.4952 L 278.6484,192.65126 254.83674,370.03107 c -0.72623,5.40332 -5.80299,9.5746 -11.64999,9.5746 z"
   id="path840" />
</svg>
